 
<svg width="632px" height="95px" viewBox="0 0 632 95" version="1.1" xmlns="http://www.w3.org/2000/svg" xmlns:xlink="http://www.w3.org/1999/xlink">
    
            <path d="M199.432,79.7 L191.632,66.284 C189.647555,67.5789387 187.493909,68.5938443 185.232,69.3 C181.991181,70.334904 178.601253,70.8255516 175.2,70.752 C172.250871,70.7793189 169.31724,70.3225859 166.516,69.4 C163.956482,68.5645925 161.600493,67.2019615 159.6,65.4 C157.608589,63.5626581 156.046254,61.3092908 155.024,58.8 C153.862798,55.8913331 153.296965,52.7792554 153.36,49.648 C153.312452,46.5317838 153.823175,43.432223 154.868,40.496 C155.793655,37.9195807 157.245831,35.5642228 159.132,33.58 C160.962915,31.6777645 163.179019,30.1885428 165.632,29.212 C168.282427,28.1785287 171.107458,27.6664918 173.952,27.704 C176.179637,27.6792328 178.400202,27.9591585 180.552,28.536 C182.360831,29.0282887 184.119265,29.6898779 185.804,30.512 C187.205546,31.1947091 188.5158,32.0507413 189.704,33.06 C190.778,33.9933333 191.662,34.808 192.356,35.504 C193.009008,35.1008888 193.618876,34.6317596 194.176,34.104 C194.971967,33.3714883 195.70272,32.5711396 196.36,31.712 C197.112147,30.7357257 197.740902,29.670336 198.232,28.54 C198.752273,27.3606989 199.018054,26.0849525 199.012,24.796 C199.006818,23.3964771 198.649145,22.0208123 197.972,20.796 C197.11026,19.3302775 195.939006,18.0702919 194.54,17.104 C193.776,16.62 192.770667,16.0653333 191.524,15.44 C190.065062,14.7277411 188.552405,14.1312381 187,13.656 C185.010527,13.0509466 182.978032,12.5976467 180.92,12.3 C178.369848,11.9353083 175.79603,11.7614921 173.22,11.78 C168.134618,11.7383863 163.082447,12.6025379 158.3,14.332 C153.819981,15.9506813 149.715606,18.462842 146.236,21.716 C142.726739,25.0522049 139.962315,29.0925165 138.124,33.572 C136.067818,38.6748489 135.059799,44.1393717 135.16,49.64 C135.041503,55.2026577 136.086494,60.7287146 138.228,65.864 C140.124655,70.3036107 142.963499,74.2779935 146.548,77.512 C150.099502,80.6615248 154.258226,83.0505785 158.768,84.532 C163.530429,86.1108584 168.518763,86.9012634 173.536,86.872 C176.848063,86.9031242 180.155785,86.6245792 183.416,86.04 C185.992796,85.5733643 188.530677,84.9128198 191.008,84.064 C192.855417,83.4346052 194.646989,82.6518799 196.364,81.724 C197.49278,81.110764 198.586479,80.4350479 199.64,79.7 L199.432,79.7 Z" id="CSGORUN-path" fill="#D3E9FF"></path>
            <path d="M200.783,78.348 C201.767844,79.0873946 202.831686,79.7152355 203.955,80.22 C206.196821,81.3202053 208.506895,82.2754993 210.871,83.08 C214.115788,84.194477 217.434553,85.0806393 220.803,85.732 C224.897526,86.5241951 229.060661,86.9074125 233.231,86.876 C243.145,86.876 250.823667,84.8306667 256.267,80.74 C261.710333,76.6493333 264.431667,70.964 264.431,63.684 C264.5001,60.80315 263.987199,57.9379755 262.923,55.26 C261.924616,52.9132844 260.372299,50.8435291 258.399,49.228 C256.161791,47.4349907 253.651161,46.0128855 250.963,45.016 C247.638129,43.7661888 244.210433,42.8092179 240.719,42.156 L229.7,39.968 C228.022732,39.6606467 226.371294,39.2260578 224.76,38.668 C223.75538,38.3283423 222.80848,37.8373568 221.952,37.212 C221.381283,36.8136099 220.944752,36.2515589 220.7,35.6 C220.523625,35.0273863 220.435943,34.4311478 220.44,33.832 C220.452223,33.0559312 220.574784,32.2855473 220.804,31.544 C221.083918,30.6570741 221.628232,29.8768907 222.364,29.308 C223.436029,28.5178581 224.656332,27.9519202 225.952,27.644 C228.062111,27.1352654 230.230259,26.9079596 232.4,26.968 C235.086464,26.9541971 237.768065,27.197979 240.408,27.696 C242.667563,28.1189194 244.892409,28.7098942 247.064,29.464 C248.806366,30.0645365 250.479807,30.8489617 252.056,31.804 C253.176811,32.4699983 254.222815,33.2545013 255.176,34.144 C255.798334,33.6813617 256.388989,33.177568 256.944,32.636 C257.673496,31.9328706 258.319128,31.1476422 258.868,30.296 C259.47307,29.3635314 259.97851,28.3700798 260.376,27.332 C260.792766,26.25405 261.004399,25.1077036 261,23.952 C261.026857,22.3614088 260.45098,20.8195438 259.388,19.636 C258.417596,18.5120115 257.277104,17.5469795 256.008,16.776 C255.150732,16.2747143 254.265261,15.8232979 253.356,15.424 C251.82083,14.7560188 250.239374,14.1999025 248.624,13.76 C246.335624,13.1364717 244.007624,12.6687335 241.656,12.36 C238.518237,11.9519622 235.356066,11.760842 232.192,11.788 C227.772769,11.7057533 223.368153,12.3199428 219.14,13.608 C215.778373,14.6337882 212.652056,16.3124849 209.94,18.548 C207.583843,20.5308469 205.730631,23.0433752 204.532,25.88 C203.344008,28.7307549 202.742705,31.7916873 202.764,34.88 C202.484624,40.9349141 205.281611,46.721474 210.2,50.264 C212.463452,51.9000593 214.973755,53.1639884 217.636,54.008 C220.356639,54.8972721 223.136955,55.5923513 225.956,56.088 L236.564,57.96 C240.238,58.584 242.751333,59.4333333 244.104,60.508 C245.401071,61.4717061 246.155682,63.0002765 246.132,64.616 C246.131394,65.4482329 245.990764,66.2744323 245.716,67.06 C245.369991,67.941547 244.750291,68.688833 243.948,69.192 C242.769673,69.9283981 241.464915,70.4397223 240.1,70.7 C237.908487,71.1303826 235.67681,71.3221674 233.444,71.272 C230.267762,71.2933282 227.097343,70.9971901 223.98,70.388 C221.377075,69.8797013 218.806037,69.2199128 216.28,68.412 C214.392777,67.8168228 212.55071,67.0869473 210.768,66.228 C209.784046,65.7788879 208.843997,65.2392303 207.96,64.616 L200.783,78.348 Z" id="CSGORUN-path" fill="#D3E9FF"></path>
            <path d="M317.574,70.648 C316.764553,70.7689604 315.948246,70.8384333 315.13,70.856 C313.778,70.9226667 312.478,70.956 311.23,70.956 C303.95,70.956 298.212667,69.2226667 294.018,65.756 C289.823333,62.2893333 287.726,56.8466667 287.726,49.428 C287.683899,46.346115 288.194645,43.2816424 289.234,40.38 C290.16496,37.7942069 291.636306,35.4365077 293.55,33.464 C295.491963,31.5122714 297.833657,30.0043627 300.414,29.044 C303.342528,27.9646872 306.445284,27.4358083 309.566,27.484 C311.781625,27.4640005 313.993382,27.673112 316.166,28.108 C317.956536,28.4648029 319.700961,29.0230189 321.366,29.772 C322.720138,30.386923 324.009245,31.1359988 325.214,32.008 C326.150119,32.6892296 327.036374,33.4364649 327.866,34.244 C328.35,33.898 328.974,33.3953333 329.738,32.736 C330.534636,32.0419346 331.265718,31.2760392 331.922,30.448 C332.650967,29.5217379 333.262296,28.5086793 333.742,27.432 C334.26548,26.2720729 334.531577,25.0125448 334.522,23.74 C334.522,20.898 333.066,18.5753333 330.154,16.772 C329.39,16.288 328.419333,15.7506667 327.242,15.16 C325.855025,14.4932932 324.410441,13.95375 322.926,13.548 C320.978108,13.010954 318.999042,12.5941678 317,12.3 C314.4341,11.9319224 311.844073,11.7580951 309.252,11.78 C303.872229,11.729489 298.524197,12.6090996 293.444,14.38 C288.785283,15.9975296 284.50395,18.5450996 280.86,21.868 C277.2861,25.1817294 274.46639,29.2250861 272.592,33.724 C270.551906,38.7028822 269.543553,44.0440262 269.628,49.424 C269.507043,55.0374041 270.551713,60.6148796 272.696,65.804 C274.621769,70.323667 277.57781,74.3303501 281.328,77.504 C285.23767,80.7310854 289.768681,83.1204854 294.64,84.524 C300.19705,86.1387829 305.961436,86.9272248 311.748,86.864 C314.59,86.864 317.311333,86.7773333 319.912,86.604 C322.512667,86.4306667 324.852667,86.24 326.932,86.032 C329.012,85.824 330.728,85.616 332.08,85.408 C333.432,85.2 334.282,85.064 334.63,85 L334.63,52.864 C334.63,46.278 331.196667,42.9846667 324.33,42.984 L304.57,42.984 C304.030094,43.9649701 303.577677,44.9916071 303.218,46.052 C302.641213,47.6700376 302.359415,49.3784371 302.386,51.096 C302.386,53.662 303.062,55.586 304.414,56.868 C305.766,58.15 308.036667,58.7913333 311.226,58.792 L317.57,58.792 L317.57,70.648 L317.574,70.648 Z" id="CSGORUN-path" fill="#D3E9FF"></path>
            <path d="M364.789,14.7 C374.539359,10.8173479 385.406641,10.8173479 395.157,14.7 C399.718001,16.5407381 403.883845,19.2387601 407.429,22.648 C414.61559,29.6540382 418.634345,39.2877827 418.557,49.324 L418.55723,49.8612568 C418.489807,59.7034417 414.487258,69.1190697 407.429,76 C403.885368,79.413158 399.719263,82.114065 395.157,83.956 C385.406641,87.8386521 374.539359,87.8386521 364.789,83.956 C360.22623,82.1150394 356.059949,79.4140182 352.517,76 C349.032865,72.6144675 346.257593,68.5691783 344.353,64.1 C342.35865,59.4339431 341.34957,54.4062453 341.389,49.332 C341.311655,39.2957827 345.33041,29.6620382 352.517,22.656 C356.060787,19.2430373 360.226852,16.5421562 364.789,14.7 Z M388.185,29.624 C382.91851,27.4747149 377.01949,27.4747149 371.753,29.624 C369.31932,30.6559588 367.124357,32.1782719 365.305,34.096 C363.470997,36.0510997 362.03979,38.3480987 361.093,40.856 C360.068042,43.5630905 359.556642,46.4375098 359.585,49.332 C359.553159,52.2098702 360.06478,55.0678938 361.093,57.756 C362.055731,60.2559885 363.485125,62.5500778 365.305,64.516 C367.111884,66.4611131 369.309151,68.002744 371.753,69.04 L371.753,69.04 C377.021796,71.1854791 382.919158,71.186915 388.185,69.04 C390.62857,68.0022422 392.825739,66.4606805 394.633,64.516 C396.45148,62.5490138 397.880699,60.2552058 398.845,57.756 C399.872248,55.0676235 400.383836,52.2097864 400.353,49.332 C400.380377,46.4375916 399.869009,43.5633519 398.845,40.856 C397.896687,38.3488516 396.465656,36.0521346 394.633,34.096 C392.813269,32.178708 390.618403,30.6564621 388.185,29.624 Z" id="Combined-Shape" fill="#D3E9FF"></path>
            <path d="M452.664,12.612 C457.937453,12.4797624 463.199638,13.1638465 468.264,14.64 C471.956062,15.7340161 475.375836,17.5945152 478.3,20.1 C480.726253,22.2329535 482.586902,24.9332308 483.716,27.96 C484.79016,30.9080121 485.335855,34.0223999 485.328,37.16 C485.392167,41.1101052 484.500149,45.0171449 482.728,48.548 C480.794689,52.1089428 477.819077,54.9938345 474.2,56.816 C475.24,58.476 476.384,60.416 477.632,62.636 C478.88,64.856 480.18,67.196 481.532,69.656 C482.882667,72.1146667 484.216,74.6626667 485.532,77.3 C486.848,79.9373333 488.096,82.504 489.276,85 L489.276,85 L469.412,85 C469.066667,84.2313333 468.425333,82.79 467.488,80.676 C466.550667,78.562 465.476,76.274 464.264,73.812 C463.052,71.35 461.804,68.9406667 460.52,66.584 C459.236,64.2273333 458.144,62.39 457.244,61.072 C456.262219,61.2118725 455.271694,61.281383 454.28,61.28 L454.28,61.28 L451.108,61.28 C450.692,61.28 450.12,61.264 449.392,61.228 L449.392,61.228 L447.156,61.128 C446.392,61.098 445.7,61.064 445.076,61.028 C444.655526,61.0220972 444.236989,60.9697801 443.828,60.872 L443.828,60.872 L443.828,85 L426.876,85 L426.876,22.912 C426.846501,21.5679848 427.057834,20.2295419 427.5,18.96 C427.856309,17.9452338 428.401963,17.0073063 429.108,16.196 C429.743283,15.4845251 430.523401,14.9171665 431.396,14.532 C432.242234,14.1575474 433.133788,13.8953257 434.048,13.752 C434.742,13.6133333 435.556667,13.4746667 436.492,13.336 C437.427333,13.1973333 438.606,13.076 440.028,12.972 C441.449333,12.8653333 443.182667,12.7786667 445.228,12.712 C447.273333,12.6453333 449.752,12.612 452.664,12.612 Z M452.875128,27.3728875 L452.252,27.384 C449.826,27.3813333 447.902,27.4333333 446.48,27.54 C445.058,27.6466667 444.174,27.7333333 443.828,27.8 L443.828,27.8 L443.832,27.8 L443.832,46.108 C444.128903,46.1171427 444.424558,46.1505878 444.716,46.208 C445.096667,46.28 445.634,46.3493333 446.328,46.416 C447.025333,46.4853333 447.909333,46.5373333 448.98,46.572 C450.050667,46.6066667 451.384,46.624 452.98,46.624 C455.447436,46.6819029 457.91197,46.4197184 460.312,45.844 C461.928627,45.4620598 463.450328,44.754292 464.784,43.764 C465.789878,42.992515 466.548875,41.9443751 466.968,40.748 C467.345287,39.6251084 467.538448,38.4485795 467.54,37.264 C467.533989,36.1178791 467.358766,34.9789277 467.02,33.884 C466.613411,32.6512849 465.875893,31.5540027 464.888,30.712 C463.533596,29.5937075 461.955615,28.7781219 460.26,28.32 C457.650262,27.6208874 454.952618,27.3055784 452.252,27.384 Z" id="Combined-Shape" fill="#59A2FF"></path>
            <path d="M492.707,53.384 C492.707,63.924 495.549667,72.14 501.235,78.032 C506.920333,83.924 515.067,86.8706667 525.675,86.872 C536.283,86.872 544.429667,83.9253333 550.115,78.032 C555.800333,72.1386667 558.643,63.9226667 558.643,53.384 L558.643,15.32 C558.227,15.182 557.239,14.87 555.679,14.384 C553.94028,13.8740993 552.13474,13.6286861 550.323,13.656 C548.015254,13.5478434 545.729456,14.146505 543.771,15.372 C542.104333,16.516 541.271,18.5093333 541.271,21.352 L541.271,51.616 C541.304569,54.3918472 541.043101,57.1634046 540.491,59.884 C540.066375,62.0576816 539.179701,64.114765 537.891,65.916 C536.661397,67.5584695 535.007492,68.8348525 533.107,69.608 C528.289304,71.2720064 523.052696,71.2720064 518.235,69.608 C516.334508,68.8348525 514.680603,67.5584695 513.451,65.916 C512.162299,64.114765 511.275625,62.0576816 510.851,59.884 C510.29931,57.1633576 510.038178,54.3918086 510.072,51.616 L510.072,15.32 C509.654667,15.182 508.666333,14.87 507.107,14.384 C505.36828,13.8740993 503.56274,13.6286861 501.751,13.656 C499.443254,13.5478434 497.157456,14.146505 495.199,15.372 C493.532333,16.516 492.699,18.5093333 492.699,21.352 L492.699,53.384 L492.707,53.384 Z" id="CSGORUN-path" fill="#4F8EDF"></path>
            <path d="M586.515,85 L586.515,41.112 C587.763,42.916 589.253667,45.1 590.987,47.664 C592.720333,50.228 594.540333,52.9666667 596.447,55.88 C598.353,58.792 600.294333,61.756 602.271,64.772 C604.247667,67.788 606.102333,70.6133333 607.835,73.248 C609.568333,75.884 611.093667,78.2413333 612.411,80.32 C613.728333,82.3986667 614.699,83.9586667 615.323,85 L631.651,85 L631.651,15.32 C631.303,15.182 630.367,14.87 628.843,14.384 C627.123901,13.8719878 625.336484,13.626471 623.543,13.656 C621.235254,13.5478434 618.949456,14.146505 616.991,15.372 C615.324333,16.516 614.491,18.5093333 614.491,21.352 L614.491,55.568 C613.589,54.112 612.341,52.188 610.747,49.796 C609.153,47.404 607.419667,44.804 605.547,41.996 C603.675,39.188 601.751,36.3106667 599.775,33.364 C597.799,30.4173333 595.961667,27.7306667 594.263,25.304 C592.563,22.878 591.107,20.8326667 589.895,19.168 C589.168419,18.1223348 588.38734,17.1156108 587.555,16.152 C586.676197,15.5494162 585.734705,15.0438003 584.747,14.644 C582.895344,13.9137919 580.91188,13.5773114 578.923,13.656 C577.749269,13.6558459 576.579697,13.7954963 575.439,14.072 C574.333668,14.3307618 573.290795,14.8066491 572.371,15.472 C571.421315,16.1908497 570.669812,17.139175 570.187,18.228 C569.586231,19.6399653 569.302235,21.166447 569.355,22.7 L569.355,85 L586.515,85 Z" id="CSGORUN-path" fill="#4B87D4"></path>
            <g id="Группа_1_копия" opacity="0.28549107">
                <path d="M8.383,46.343 L11.383,44.043 C14.1709375,41.9106104 17.6917882,40.9730857 21.1709783,41.4366776 C24.6501684,41.9002696 27.8026898,43.7270017 29.935,46.515 L48.316,70.546 C50.4487593,73.334164 51.3864979,76.8554027 50.9229016,80.3350003 C50.4593053,83.8145978 48.6323542,86.9674894 45.844,89.1 L42.844,91.4 C37.0382579,95.8399006 28.7326126,94.7331976 24.292,88.928 L5.911,64.9 C3.77703557,62.111738 2.83857283,58.5897404 3.30220243,55.10933 C3.76583204,51.6289195 5.59354732,48.4754077 8.383,46.343 Z" id="Прямоугольник_скругл._углы_2" fill="#3366A8"></path>
                <path d="M59.051,23.468 L56.7,20.855 C52.157,15.804 42.908,15.771 36.043,20.78 L7.633,41.512 C0.768,46.522 -1.114,54.677 3.433,59.727 L5.784,62.34 C10.327,67.391 19.576,67.424 26.441,62.415 L54.848,41.683 C61.713,36.673 63.6,28.518 59.051,23.468 Z" id="Прямоугольник_скругл._углы_2_копия" fill="#3E76BE"></path>
                <path d="M32.932,0.244 L64.182,0.244 C71.0855594,0.244 76.682,5.84044063 76.682,12.744 L76.682,13.786 C76.682,17.1012061 75.3650395,20.28063 73.0208348,22.6248348 C70.67663,24.9690395 67.4972061,26.286 64.182,26.286 L32.932,26.286 C26.0284406,26.286 20.432,20.6895594 20.432,13.786 L20.432,12.744 C20.432,5.84044063 26.0284406,0.244 32.932,0.244 Z" id="Прямоугольник_скругл._углы_4_копия_2" fill="#59A2FF"></path>
            </g>
            <g id="Группа_1" transform="translate(32.000000, 0.000000)">
                <path d="M10.633,44.043 C13.4209375,41.9106104 16.9417882,40.9730857 20.4209783,41.4366776 C23.9001684,41.9002696 27.0526898,43.7270017 29.185,46.515 L47.566,70.546 C49.6987593,73.334164 50.6364979,76.8554027 50.1729016,80.3350003 C49.7093053,83.8145978 47.8823542,86.9674894 45.094,89.1 L42.094,91.4 C36.2882579,95.8399006 27.9826126,94.7331976 23.542,88.928 L5.161,64.9 C3.02703557,62.111738 2.08857283,58.5897404 2.55220243,55.10933 C3.01583204,51.6289195 4.84354732,48.4754077 7.633,46.343 L10.633,44.043 Z" id="Прямоугольник_скругл._углы_2-2" fill="#3366A8"></path>
                <path d="M58.3,23.468 L55.95,20.855 C51.407,15.804 42.158,15.771 35.293,20.78 L6.883,41.512 C0.018,46.522 -1.864,54.677 2.683,59.727 L5.034,62.34 C9.577,67.391 18.826,67.424 25.691,62.415 L54.1,41.683 C60.964,36.673 62.845,28.518 58.3,23.468 Z" id="Прямоугольник_скругл._углы_2_копия-2" fill="#3E76BE"></path>
                <path d="M63.432,1.286 L64.474,1.286 C71.3775594,1.286 76.974,6.88244063 76.974,13.786 L76.974,45.036 C76.974,51.9395594 71.3775594,57.536 64.474,57.536 L63.432,57.536 C56.5284406,57.536 50.932,51.9395594 50.932,45.036 L50.932,13.786 C50.932,6.88244063 56.5284406,1.286 63.432,1.286 Z" id="Прямоугольник_скругл._углы_4_копия" fill="#4F8EDF"></path>
                <path d="M33.224,0.244 L64.474,0.244 C71.3775594,0.244 76.974,5.84044063 76.974,12.744 L76.974,13.786 C76.974,17.1012061 75.6570395,20.28063 73.3128348,22.6248348 C70.96863,24.9690395 67.7892061,26.286 64.474,26.286 L33.224,26.286 C26.3204406,26.286 20.724,20.6895594 20.724,13.786 L20.724,12.744 C20.724,5.84044063 26.3204406,0.244 33.224,0.244 Z" id="Прямоугольник_скругл._углы_4" fill="#59A2FF"></path>
            </g>

</svg>